<svg width="911" height="362" viewBox="0 0 911 362" fill="none" xmlns="http://www.w3.org/2000/svg">
<g clip-path="url(#clip0_189_2)">
<path fill-rule="evenodd" clip-rule="evenodd" d="M275.164 204.401C275.164 182.91 275.164 161.42 275.164 139.929C275.164 113.662 287.107 93.1267 307.649 77.3668C325.802 63.9948 345.866 58.2639 368.318 60.6518C386.471 62.5621 401.758 71.1584 414.656 82.6201C444.275 108.409 449.052 146.615 433.765 179.567C428.988 189.596 419.911 197.715 412.268 206.311C408.446 210.61 403.669 213.475 398.892 216.818C385.038 226.847 368.796 227.325 352.554 226.847C339.655 226.369 327.713 223.026 316.247 216.818C309.559 213.475 308.126 214.43 307.649 222.071C306.693 236.399 306.693 250.726 305.26 265.053C304.782 267.918 302.394 271.739 300.005 273.172C295.228 276.515 289.973 279.38 284.718 281.768C278.508 284.633 275.164 282.723 275.164 275.559C275.164 252.158 275.642 204.401 275.164 204.401ZM360.675 94.0819C328.668 92.1716 308.126 116.528 307.649 144.227C307.171 175.269 333.923 194.372 359.719 195.327C386.471 196.282 410.357 171.449 409.879 143.749C409.402 117.961 388.86 92.6492 360.675 94.0819Z" fill="white"/>
<path fill-rule="evenodd" clip-rule="evenodd" d="M900.012 188.641C900.012 201.058 900.012 206.789 900.012 219.206C900.012 224.937 898.102 227.324 891.891 227.324C885.681 226.847 878.993 227.802 872.783 227.324C870.872 227.324 868.006 223.981 867.528 222.071C866.095 215.385 864.184 213.952 857.496 217.295C844.12 224.937 829.789 227.324 814.98 227.802C782.495 228.757 760.042 212.52 742.845 186.253C730.902 168.105 729.946 148.047 733.29 127.989C735.679 113.185 742.367 99.8126 752.877 88.3509C773.896 65.905 799.693 56.8311 829.789 62.0844C853.197 65.905 871.827 79.277 886.159 98.8575C897.624 114.617 899.057 130.855 900.49 148.525C900.968 159.509 900.49 158.076 900.49 168.583C900.968 168.583 900.012 188.641 900.012 188.641ZM815.935 92.649C788.228 88.8284 763.864 118.916 764.342 146.137C764.82 167.628 788.227 195.805 815.457 196.282C839.343 196.76 867.05 170.971 867.05 146.615C867.05 121.781 848.419 89.7836 815.935 92.649Z" fill="white"/>
<path fill-rule="evenodd" clip-rule="evenodd" d="M624.372 167.15C623.417 184.821 622.939 202.013 621.983 218.728C621.983 223.982 620.073 227.325 613.862 226.847C609.085 226.369 603.83 226.847 599.053 227.325C594.754 227.802 592.365 225.414 591.41 221.594C589.977 214.908 587.11 213.475 580.9 216.818C561.314 227.802 540.294 228.757 518.797 224.937C504.466 222.549 492.523 213.953 482.491 203.924C469.115 190.552 459.083 174.314 457.172 154.734C454.784 134.198 459.083 115.095 470.548 97.9024C482.491 80.2323 498.733 68.2929 518.797 63.0396C537.428 58.2639 557.014 58.7415 575.168 68.2929C591.888 76.8892 606.219 88.351 614.818 105.544C620.55 117.005 623.894 129.422 624.85 142.794C624.372 151.391 624.372 159.509 624.372 167.15ZM540.772 94.0819C512.587 92.6491 488.701 115.573 488.701 141.839C488.701 173.836 510.676 194.85 538.861 194.85C570.39 194.85 589.977 174.314 590.454 143.272C590.454 116.528 569.435 93.1267 540.772 94.0819Z" fill="white"/>
<path fill-rule="evenodd" clip-rule="evenodd" d="M642.047 114.14C642.047 79.277 642.047 44.8918 642.047 10.029C642.047 1.91029 643.48 0 652.079 0C658.767 0 665.455 0 672.621 0C678.831 0 680.742 2.86544 680.742 9.07388C680.742 20.5356 680.742 31.5198 680.742 42.9815C680.742 50.6227 682.175 52.0554 689.818 52.0554C696.029 52.0554 702.717 51.5778 708.927 52.0554C716.57 52.0554 717.526 54.9208 715.137 62.0844C713.226 67.3377 712.749 72.591 711.793 77.8443C710.838 83.5752 707.494 85.9631 701.283 85.9631C678.353 85.4855 680.742 83.5752 680.742 106.499C680.742 143.749 680.742 181.478 681.219 218.728C681.219 224.459 678.831 226.847 673.098 226.847C665.933 226.847 658.767 226.847 651.123 226.847C644.913 226.847 642.525 224.459 642.525 217.773C642.525 183.388 642.047 149.003 642.047 114.14Z" fill="white"/>
<path fill-rule="evenodd" clip-rule="evenodd" d="M186.787 114.14C186.787 79.2771 186.787 44.4143 186.787 9.55149C186.787 2.86548 188.698 0.477613 195.386 0.477613C201.596 0.477613 208.284 0.477613 214.494 0.477613C220.227 4.08718e-05 222.615 2.86548 222.615 8.59635C222.615 19.5805 222.615 31.0423 223.093 42.0264C223.571 50.6227 225.004 52.0554 233.603 52.533C239.335 52.533 245.545 53.0106 251.278 53.0106C256.055 53.0106 258.444 55.3985 257.966 60.1742C257.011 66.8602 256.055 73.0686 254.622 79.7547C253.667 85.008 250.323 87.3958 244.59 86.9182C239.335 86.9182 234.08 86.9182 228.825 86.9182C224.048 86.9182 221.66 89.7837 221.66 94.0818C221.66 100.29 221.66 106.976 221.66 113.185C221.66 148.525 221.66 184.343 221.66 219.683C221.66 224.937 219.749 227.325 214.494 227.325C207.806 227.325 201.596 227.802 194.908 227.802C187.264 227.802 185.354 225.892 185.354 217.773C186.309 182.91 186.309 148.525 186.787 114.14Z" fill="white"/>
<path d="M561.792 340.032H553.193V264.575H562.27V291.319C566.092 286.544 571.346 284.156 577.079 284.156C580.423 284.156 583.767 284.633 586.633 286.066C589.5 287.499 591.888 289.409 594.277 291.797C596.188 294.185 597.621 297.05 599.054 300.871C600.009 304.214 600.487 308.034 600.487 311.855C600.487 321.406 598.098 328.57 593.321 333.346C588.544 338.121 583.289 340.987 576.601 340.987C569.913 340.987 565.136 338.121 561.314 332.868V340.032H561.792ZM561.792 312.332C561.792 319.018 562.748 323.794 564.658 326.66C567.525 331.435 571.346 333.823 576.601 333.823C580.423 333.823 584.245 331.913 587.111 328.57C589.977 325.227 591.41 319.974 591.41 312.81C591.41 305.646 589.977 300.393 587.111 297.05C584.245 293.707 580.901 291.797 577.079 291.797C573.257 291.797 569.436 293.707 566.569 297.05C563.225 300.393 561.792 305.646 561.792 312.332Z" fill="white"/>
<path d="M611.474 361.045L610.519 352.449C612.43 352.926 614.341 353.404 615.774 353.404C617.685 353.404 619.596 352.926 620.551 352.449C621.984 351.971 622.94 351.016 623.417 349.583C623.895 348.628 624.85 346.24 626.284 342.897C626.284 342.42 626.761 341.464 627.239 340.509L606.697 285.111H616.729L628.194 316.631C629.628 320.451 631.061 324.749 632.016 329.048C632.972 324.749 634.405 320.451 635.838 316.631L647.303 284.633H656.379L635.36 340.032C632.972 346.24 631.538 350.061 630.105 352.449C628.672 355.314 626.761 357.702 624.373 359.135C622.462 360.567 619.596 361.045 616.729 361.045C615.774 362 613.863 361.522 611.474 361.045Z" fill="white"/>
<path d="M714.183 331.435L715.616 339.554C713.227 340.032 710.839 340.509 708.45 340.509C705.106 340.509 702.718 340.032 700.807 339.076C698.896 338.121 697.463 336.689 696.985 334.778C696.03 332.868 696.03 329.525 696.03 323.794V292.274H689.342V285.111H696.03V271.739L705.106 266.008V285.111H714.183V292.274H705.106V324.272C705.106 327.137 705.106 328.57 705.584 329.525C706.062 330.48 706.539 330.958 707.017 331.435C707.495 331.913 708.928 331.913 710.361 331.913C711.317 331.913 712.272 331.913 714.183 331.435Z" fill="white"/>
<path d="M759.087 333.346C755.743 336.211 752.399 338.121 749.055 339.554C745.711 340.987 742.367 341.464 739.023 341.464C732.813 341.464 728.514 340.032 725.17 337.166C721.826 334.301 720.393 330.48 720.393 325.705C720.393 322.839 720.87 320.451 722.303 318.541C723.737 316.153 725.17 314.72 727.081 313.288C728.991 311.855 731.38 310.9 733.769 310.422C735.679 309.945 738.546 309.467 741.89 308.99C749.533 308.034 754.788 307.079 758.61 305.647C758.61 304.214 758.61 303.736 758.61 303.259C758.61 299.438 757.654 297.05 756.221 295.14C753.833 293.23 750.489 291.797 745.711 291.797C741.412 291.797 738.068 292.752 736.157 294.185C734.246 295.618 732.335 298.483 731.38 302.304L722.303 300.871C723.259 297.05 724.692 293.707 726.603 291.319C728.514 288.932 731.38 287.021 734.724 285.589C738.068 284.156 742.367 283.678 747.145 283.678C751.922 283.678 755.743 284.156 758.61 285.111C761.476 286.066 763.865 287.499 764.82 289.409C766.253 290.842 767.208 293.23 767.686 295.618C768.164 297.05 768.164 299.916 768.164 304.214V316.631C768.164 325.227 768.164 330.48 768.642 332.868C769.119 335.256 769.597 337.166 771.03 339.554H761.476C759.565 338.121 759.087 335.734 759.087 333.346ZM758.132 312.333C754.788 313.765 749.533 314.72 742.845 315.676C739.023 316.153 736.157 316.631 734.724 317.586C733.291 318.063 731.858 319.496 730.902 320.451C729.947 321.884 729.469 323.317 729.469 324.749C729.469 327.137 730.425 329.048 732.335 330.958C734.246 332.391 737.113 333.346 740.457 333.346C743.801 333.346 747.145 332.391 750.011 330.958C752.877 329.525 754.788 327.137 756.221 324.749C757.177 322.839 757.654 319.496 757.654 315.676V312.333H758.132Z" fill="white"/>
<path d="M778.197 323.794L787.274 322.362C787.752 326.182 789.185 329.048 791.573 330.958C793.962 332.868 797.306 333.823 801.605 333.823C805.905 333.823 809.249 332.868 811.16 331.435C813.07 329.525 814.026 327.615 814.026 325.227C814.026 323.317 813.07 321.406 811.16 320.451C809.726 319.496 806.86 318.541 801.605 317.108C794.917 315.198 790.14 313.765 787.274 312.81C784.885 311.377 782.497 309.945 781.541 307.557C780.108 305.169 779.63 302.781 779.63 300.393C779.63 298.005 780.108 295.617 781.541 293.707C782.497 291.797 784.408 289.887 786.318 288.454C787.752 287.499 789.662 286.544 792.051 285.588C794.44 284.633 797.306 284.633 800.172 284.633C804.472 284.633 808.293 285.111 811.637 286.544C814.981 287.976 817.37 289.409 818.803 291.319C820.236 293.23 821.192 296.095 822.147 299.916L813.07 301.348C812.593 298.483 811.637 296.573 809.726 294.662C807.816 293.23 804.949 292.274 801.128 292.274C796.828 292.274 793.962 292.752 792.051 294.185C790.14 295.617 789.185 297.05 789.185 298.96C789.185 300.393 789.662 301.348 790.14 302.303C791.096 303.259 792.051 304.214 793.484 304.691C794.44 305.169 797.306 305.647 801.605 307.079C808.293 308.99 812.593 310.422 815.459 311.377C817.848 312.333 820.236 314.243 821.669 316.153C823.102 318.063 824.058 320.929 824.058 324.272C824.058 327.137 823.102 330.48 821.192 332.868C819.281 335.734 816.892 337.644 813.548 339.077C810.204 340.509 806.382 341.464 802.083 341.464C794.917 341.464 789.662 340.032 785.841 337.166C781.541 333.823 779.153 329.525 778.197 323.794Z" fill="white"/>
<path d="M854.63 331.435L856.063 339.554C853.675 340.032 851.286 340.509 848.898 340.509C845.554 340.509 843.165 340.032 841.254 339.076C839.343 338.121 837.91 336.689 837.433 334.778C836.477 332.868 836.477 329.525 836.477 323.794V292.274H829.789V285.111H836.477V271.739L845.554 266.008V285.111H854.63V292.274H845.554V324.272C845.554 327.137 845.554 328.57 846.031 329.525C846.509 330.48 846.987 330.958 847.464 331.435C847.942 331.913 849.375 331.913 850.809 331.913C851.764 331.913 853.197 331.913 854.63 331.435Z" fill="white"/>
<path d="M900.968 322.362L910.522 323.317C909.089 329.048 906.223 333.346 901.924 336.211C897.624 339.077 892.847 340.987 886.159 340.987C878.038 340.987 871.828 338.599 867.05 333.823C862.273 329.048 859.885 321.884 859.885 313.288C859.885 304.214 862.273 297.05 867.05 291.797C871.828 286.544 878.038 284.156 885.681 284.156C892.847 284.156 899.057 286.544 903.357 291.797C908.134 296.573 910.522 303.736 910.522 312.81C910.522 313.288 910.522 314.243 910.522 315.198H869.917C870.394 321.406 871.828 325.705 875.172 329.048C878.038 332.391 881.86 333.823 886.637 333.823C889.981 333.823 892.847 332.868 895.236 330.958C897.624 329.048 899.535 326.182 900.968 322.362ZM870.872 307.557H901.446C900.968 302.781 900.013 299.438 898.102 297.05C895.236 293.707 891.414 291.797 886.637 291.797C882.337 291.797 878.993 293.23 876.127 296.095C873.261 298.961 870.872 302.781 870.872 307.557Z" fill="white"/>
<path d="M538.861 59.2188C492.045 59.2188 453.828 96.947 453.828 143.749C453.828 190.551 491.567 228.279 538.383 228.279C585.199 228.279 622.939 190.551 622.939 143.749C623.416 96.947 585.199 59.2188 538.861 59.2188ZM539.339 196.76C511.154 196.76 488.223 173.836 488.223 145.659C488.223 117.483 511.154 94.5591 539.339 94.5591C567.524 94.5591 590.454 117.483 590.454 145.659C590.454 173.836 567.524 196.76 539.339 196.76Z" fill="white"/>
<path fill-rule="evenodd" clip-rule="evenodd" d="M170.065 167.15C169.11 184.821 168.632 202.013 167.677 218.728C167.677 223.982 165.766 227.325 159.556 226.847C154.778 226.369 149.524 226.847 144.746 227.325C140.447 227.802 138.058 225.414 137.103 221.594C135.67 214.908 132.804 213.475 126.593 216.818C107.007 227.802 85.9876 228.757 64.4905 224.937C50.1591 222.549 38.2163 213.953 28.1843 203.924C14.3306 190.552 4.7763 174.314 2.86544 154.734C0.476874 133.72 4.29858 115.095 16.2414 97.9024C28.1843 80.2323 44.4265 68.2929 64.4905 63.0396C83.1213 58.2639 102.708 58.7415 120.861 68.2929C137.581 76.8892 151.912 88.351 160.511 105.544C166.244 117.005 169.588 129.422 170.543 142.794C170.543 151.391 170.065 159.509 170.065 167.15ZM86.4654 94.0819C58.2802 92.6491 34.3945 115.573 34.3945 141.839C34.3945 173.836 56.3694 194.85 84.5545 194.85C116.084 194.85 135.67 174.314 136.148 143.272C136.625 116.528 115.606 93.1267 86.4654 94.0819Z" fill="white"/>
<path d="M84.5553 59.2188C37.7394 59.2188 0 96.947 0 143.749C0 190.551 37.7394 228.279 84.5553 228.279C131.371 228.279 169.111 190.551 169.111 143.749C169.111 96.947 131.371 59.2188 84.5553 59.2188ZM85.033 196.76C56.8479 196.76 33.9177 173.836 33.9177 145.659C33.9177 117.483 56.8479 94.5591 85.033 94.5591C113.218 94.5591 136.148 117.483 136.148 145.659C136.148 173.836 113.696 196.76 85.033 196.76Z" fill="white"/>
<path d="M358.762 59.2188C311.946 59.2188 274.207 96.947 274.207 143.749C274.207 190.551 311.946 228.279 358.762 228.279C405.578 228.279 443.318 190.551 443.318 143.749C443.795 96.947 405.578 59.2188 358.762 59.2188ZM359.718 196.76C331.533 196.76 308.602 173.836 308.602 145.659C308.602 117.483 331.533 94.5591 359.718 94.5591C387.903 94.5591 410.833 117.483 410.833 145.659C410.833 173.836 387.903 196.76 359.718 196.76Z" fill="white"/>
<path d="M814.979 57.7861C768.163 57.7861 730.424 95.5144 730.424 142.316C730.424 189.119 768.163 226.847 814.979 226.847C861.795 226.847 899.535 189.119 899.535 142.316C899.535 95.9919 861.795 57.7861 814.979 57.7861ZM815.457 195.327C787.272 195.327 764.342 172.404 764.342 144.227C764.342 116.05 787.272 93.1265 815.457 93.1265C843.642 93.1265 866.572 116.05 866.572 144.227C866.572 172.404 843.642 195.327 815.457 195.327Z" fill="white"/>
<path fill-rule="evenodd" clip-rule="evenodd" d="M797.782 119.871L798.259 120.348C812.591 134.675 826.922 149.003 841.254 163.33C842.209 164.285 843.164 165.718 843.642 167.15C843.642 167.628 843.642 167.628 843.642 168.105C843.642 169.538 843.164 170.493 841.731 170.971C841.254 171.448 840.298 171.448 839.343 171.926C838.865 171.926 838.387 171.926 838.387 171.926C836.954 171.926 835.521 170.971 834.566 169.538C829.311 163.807 824.056 157.599 818.801 151.868C818.801 151.868 818.801 151.39 818.323 151.39C817.368 152.346 816.89 152.823 815.935 153.778L815.457 153.301C809.724 147.57 803.514 141.361 797.782 135.63C794.915 132.765 793.96 129.422 794.438 125.601C794.438 123.691 795.393 121.781 795.871 119.871C796.348 119.871 797.304 119.871 797.782 119.871Z" fill="white"/>
<path fill-rule="evenodd" clip-rule="evenodd" d="M791.572 167.15C791.572 165.717 792.528 164.285 793.961 163.33C798.26 159.031 802.56 154.733 807.337 149.958L807.815 149.48C810.203 151.868 812.114 153.778 814.503 156.166H814.025C809.248 160.942 804.948 165.24 800.171 170.016C799.216 170.971 798.26 171.926 796.827 171.926C796.827 171.926 796.827 171.926 796.349 171.926C794.916 171.926 793.961 171.448 793.483 170.493C793.005 169.538 792.528 169.06 792.528 168.105C791.572 167.628 791.572 167.15 791.572 167.15Z" fill="white"/>
<path fill-rule="evenodd" clip-rule="evenodd" d="M830.745 134.675C831.7 135.63 832.178 136.108 833.133 137.063C836 134.198 838.388 131.81 841.255 128.944C842.21 129.9 842.688 130.377 843.643 131.332C843.643 131.332 843.166 131.332 843.166 131.81C839.822 135.153 836.477 138.496 833.133 141.839C831.7 143.272 829.79 144.227 827.401 144.227C826.446 144.704 826.446 144.227 825.968 143.749C824.057 141.839 822.146 139.929 820.235 138.018C819.758 137.541 819.758 137.541 820.235 137.063C820.235 136.586 820.235 135.63 820.713 135.153C821.191 133.72 821.668 132.287 822.624 131.332C825.968 127.989 829.789 124.169 833.133 120.826C833.611 121.303 834.567 122.258 835.044 122.736C832.178 125.601 829.79 127.989 826.923 130.855C827.879 131.81 828.356 132.287 829.312 133.243C832.178 130.377 834.567 127.989 837.433 125.124C838.388 126.079 838.866 126.557 839.822 127.512C836.478 128.944 833.611 131.81 830.745 134.675Z" fill="white"/>
</g>
<defs>
<clipPath id="clip0_189_2">
<rect width="911" height="362" fill="white"/>
</clipPath>
</defs>
</svg>
